<svg width="322" height="73" viewBox="0 0 322 73" fill="none" xmlns="http://www.w3.org/2000/svg">
<path d="M146.168 15.0713L154.948 15.025C155.198 15.0216 155.322 15.1434 155.319 15.3904L155.198 23.7081C155.196 23.8054 155.155 23.8978 155.084 23.9653C155.014 24.0327 154.92 24.0697 154.822 24.0684L145.698 23.986C145.677 23.986 145.656 23.9902 145.637 23.9983C145.617 24.0063 145.6 24.0182 145.585 24.0331C145.571 24.0479 145.559 24.0656 145.552 24.0849C145.544 24.1042 145.541 24.1249 145.541 24.1456C145.611 30.1848 145.651 37.3924 145.661 45.7684C145.667 51.6 152.251 49.1757 155.261 48.2184C155.305 48.2043 155.351 48.2 155.396 48.2055C155.441 48.2111 155.485 48.2265 155.523 48.2507C155.561 48.2748 155.594 48.307 155.618 48.3451C155.643 48.3831 155.658 48.426 155.664 48.4706L156.745 57.2206C156.77 57.4299 156.683 57.5723 156.484 57.6478C152.627 59.1061 148.842 59.6174 145.128 59.1816C139.082 58.4662 134.693 54.8015 134.677 48.5118C134.659 40.575 134.658 32.4787 134.672 24.2228C134.672 24.1614 134.647 24.1025 134.603 24.059C134.559 24.0156 134.499 23.9912 134.436 23.9912L129.409 24.0221C129.365 24.0227 129.32 24.0147 129.278 23.9984C129.237 23.9821 129.199 23.9578 129.168 23.9271C129.136 23.8964 129.111 23.8598 129.094 23.8195C129.077 23.7792 129.069 23.7361 129.07 23.6926L129.174 15.1125C129.178 15.0164 129.226 14.9684 129.32 14.9684L134.301 14.9993C134.387 14.9993 134.469 14.9662 134.53 14.9073C134.59 14.8484 134.625 14.7686 134.625 14.6853L134.672 4.30367C134.672 4.12867 134.76 4.04117 134.938 4.04117L145.238 4C145.43 4 145.526 4.09436 145.526 4.28309L145.557 14.4743C145.56 14.8757 145.764 15.0748 146.168 15.0713Z" fill="#242E4B"/>
<path d="M263.419 24.3463C263.478 30.9517 263.488 37.7836 263.45 44.8419C263.429 47.997 264.511 50.0507 268.138 49.4279C269.817 49.1397 271.444 48.7502 273.018 48.2595C273.065 48.2448 273.113 48.2402 273.161 48.2462C273.21 48.2521 273.256 48.2685 273.297 48.294C273.338 48.3196 273.372 48.3538 273.398 48.3941C273.424 48.4344 273.441 48.4798 273.447 48.5272L274.623 57.2257C274.647 57.3904 274.581 57.5019 274.424 57.5603C265.091 61.086 252.45 60.0618 252.507 47.3176C252.542 39.5078 252.542 31.825 252.507 24.2691C252.507 24.0804 252.412 23.9877 252.22 23.9912L246.89 24.0684C246.865 24.0691 246.841 24.0649 246.818 24.0562C246.795 24.0474 246.774 24.0343 246.757 24.0175C246.739 24.0007 246.725 23.9806 246.716 23.9584C246.706 23.9362 246.701 23.9123 246.701 23.8882L246.66 15.2206C246.66 15.1523 246.687 15.0869 246.736 15.0386C246.785 14.9903 246.852 14.9632 246.921 14.9632L252.115 14.9478C252.349 14.9478 252.466 14.8345 252.466 14.6081L252.528 4.19042C252.528 4.16812 252.533 4.14603 252.541 4.12542C252.55 4.10482 252.563 4.08609 252.579 4.07032C252.595 4.05455 252.614 4.04204 252.635 4.0335C252.656 4.02496 252.678 4.02057 252.701 4.02057L263.137 4.04116C263.342 4.04116 263.445 4.14067 263.445 4.33969L263.476 14.6801C263.476 14.9203 263.598 15.0387 263.842 15.0353L272.783 14.9735C272.982 14.9701 273.079 15.0662 273.076 15.2617L273.013 23.7029C273.012 23.793 272.975 23.8789 272.91 23.9416C272.845 24.0043 272.758 24.0388 272.668 24.0375L263.758 24.0066C263.528 24.0066 263.415 24.1198 263.419 24.3463Z" fill="#242E4B"/>
<path d="M169.548 40.4926C170.248 45.9588 174.502 50.1279 180.104 50.3441C184.332 50.5088 187.687 48.9287 190.712 46.036C190.78 45.9725 190.869 45.9358 190.962 45.9329C191.054 45.9301 191.144 45.9613 191.214 46.0206L198.494 52.125C198.765 52.3549 198.771 52.5882 198.509 52.825C192.921 57.9309 186.393 60.1699 178.923 59.5419C170.983 58.8762 165.061 55.3899 161.156 49.0831C156.86 42.15 156.766 32.2368 160.199 25.0875C162.917 19.4309 168.341 15.725 174.68 14.6647C180.669 13.661 187.128 14.1912 192.322 17.475C200.589 22.7096 201.849 30.7801 201.66 39.7463C201.658 39.8455 201.616 39.9398 201.544 40.009C201.471 40.0782 201.375 40.117 201.274 40.1169L169.914 40.086C169.635 40.086 169.513 40.2216 169.548 40.4926ZM189.85 31.7632C188.361 25.5456 182.78 22.6426 176.702 24.0478C172.905 24.9228 170.442 27.3848 169.313 31.4338C169.188 31.8765 169.358 32.0995 169.825 32.1029L189.563 32.1235C189.814 32.1235 189.909 32.0034 189.85 31.7632Z" fill="#242E4B"/>
<path d="M299.058 14.2375C313.565 14.3765 322.674 24.9485 321.707 38.9176C321.31 44.6206 318.958 49.8809 314.856 53.7978C310.71 57.7576 305.286 59.7049 298.583 59.6397C282.352 59.4801 272.658 45.1044 276.42 30.1265C279.133 19.3485 287.928 14.1294 299.058 14.2375ZM287.938 41.8154C291.162 52.5367 306.552 52.1198 309.473 41.6095C311.402 34.6713 309.311 26.6213 301.593 24.614C299.227 23.9997 296.851 24.1318 294.465 25.0103C287.557 27.5581 286.02 35.4485 287.938 41.8154Z" fill="#242E4B"/>
<path d="M113.241 50.4831C118.869 49.2426 118.973 43.3492 113.162 42.0831C110.71 41.5478 108.022 40.973 105.099 40.3588C99.267 39.1286 93.8061 36.4625 93.1528 29.9823C92.8811 27.2544 93.3218 24.6568 94.475 22.1897C98.0598 14.5412 108.323 13.4551 115.65 14.7831C119.815 15.5345 124.398 17.8507 127.22 21.1706C127.352 21.325 127.345 21.4742 127.199 21.6184L120.745 28.047C120.585 28.2083 120.428 28.2066 120.275 28.0419C117.353 24.9691 112.446 22.4934 108.083 23.2911C102.622 24.2794 101.775 30.5897 107.79 31.8661C116.293 33.6676 128.709 33.9713 128.375 45.7272C128.071 56.3198 119.454 59.9536 109.985 59.65C103.509 59.4407 97.9257 57.2566 93.2365 53.0978C93.01 52.8953 93.0065 52.6911 93.226 52.4853L99.8732 46.072C99.9046 46.0414 99.9419 46.0172 99.9829 46.0009C100.024 45.9845 100.068 45.9764 100.112 45.9768C100.156 45.9773 100.2 45.9864 100.241 46.0037C100.281 46.0209 100.318 46.0459 100.349 46.0772C103.866 49.5514 108.125 51.6051 113.241 50.4831Z" fill="#242E4B"/>
<path d="M215.541 17.058C216.058 16.7132 216.481 16.3837 217.082 16.1727C226.938 12.7551 239.281 13.0639 242.72 24.7786C243.166 26.2918 243.385 27.9715 243.378 29.8176C243.351 39.9401 243.33 49.7058 243.316 59.1146C243.316 59.1545 243.308 59.194 243.292 59.2308C243.276 59.2677 243.253 59.3012 243.224 59.3294C243.195 59.3576 243.16 59.3799 243.122 59.3952C243.084 59.4104 243.043 59.4183 243.002 59.4183L232.342 59.4646C232.253 59.4646 232.168 59.4299 232.105 59.3681C232.042 59.3064 232.007 59.2226 232.007 59.1352C232.011 50.3166 232.025 41.5769 232.049 32.9161C232.054 28.9992 230.701 25.4065 226.316 24.619C221.341 23.7286 215.321 26.4051 215.311 32.1852C215.293 41.0931 215.3 50.0833 215.332 59.1558C215.332 59.2268 215.303 59.2949 215.252 59.3451C215.201 59.3952 215.132 59.4234 215.06 59.4234L204.222 59.4286C204.177 59.4286 204.135 59.4112 204.104 59.3803C204.072 59.3495 204.055 59.3076 204.055 59.2639L204.023 15.1227C204.023 15.084 204.038 15.0468 204.066 15.0189C204.093 14.9911 204.13 14.9748 204.17 14.9735L214.632 14.8757C214.697 14.8755 214.76 14.9 214.807 14.944C214.855 14.988 214.884 15.0482 214.888 15.1124L215.013 16.8058C215.044 17.1867 215.22 17.2708 215.541 17.058Z" fill="#242E4B"/>
<rect width="73" height="73" rx="10" fill="#0F67FF"/>
<g filter="url(#filter0_d_224_17)">
<path d="M34.7083 49.0417C42.6244 49.0417 49.0417 42.6244 49.0417 34.7083C49.0417 26.7923 42.6244 20.375 34.7083 20.375C26.7923 20.375 20.375 26.7923 20.375 34.7083C20.375 42.6244 26.7923 49.0417 34.7083 49.0417Z" stroke="white" stroke-width="3" stroke-linecap="round" stroke-linejoin="round"/>
<path d="M52.6251 52.625L44.9209 44.9208" stroke="white" stroke-width="3" stroke-linecap="round" stroke-linejoin="round"/>
</g>
<defs>
<filter id="filter0_d_224_17" x="11" y="15" width="51" height="51" filterUnits="userSpaceOnUse" color-interpolation-filters="sRGB">
<feFlood flood-opacity="0" result="BackgroundImageFix"/>
<feColorMatrix in="SourceAlpha" type="matrix" values="0 0 0 0 0 0 0 0 0 0 0 0 0 0 0 0 0 0 127 0" result="hardAlpha"/>
<feOffset dy="4"/>
<feGaussianBlur stdDeviation="2"/>
<feComposite in2="hardAlpha" operator="out"/>
<feColorMatrix type="matrix" values="0 0 0 0 0 0 0 0 0 0 0 0 0 0 0 0 0 0 0.25 0"/>
<feBlend mode="normal" in2="BackgroundImageFix" result="effect1_dropShadow_224_17"/>
<feBlend mode="normal" in="SourceGraphic" in2="effect1_dropShadow_224_17" result="shape"/>
</filter>
</defs>
</svg>
