<?xml version="1.0" standalone="no"?>
<!DOCTYPE svg PUBLIC "-//W3C//DTD SVG 20010904//EN"
 "http://www.w3.org/TR/2001/REC-SVG-20010904/DTD/svg10.dtd">
<svg version="1.0" xmlns="http://www.w3.org/2000/svg"
 width="350.000000pt" height="380.000000pt" viewBox="0 0 350.000000 380.000000"
 preserveAspectRatio="xMidYMid meet">

<g transform="translate(0.000000,380.000000) scale(0.100000,-0.100000)"
fill="#000000" stroke="none">
<path d="M2230 3679 c-89 -46 -146 -124 -197 -274 -27 -79 -47 -220 -63 -438
-6 -82 -16 -165 -23 -185 -12 -35 -14 -37 -47 -32 -19 3 -78 5 -130 5 -75 0
-108 -6 -159 -24 -55 -21 -66 -23 -85 -11 -200 126 -442 144 -653 50 -40 -18
-89 -54 -141 -103 -69 -64 -86 -75 -128 -82 -97 -14 -229 -95 -292 -178 -61
-82 -102 -203 -102 -302 1 -114 48 -246 121 -341 l40 -52 -7 -114 c-13 -226
46 -353 193 -420 65 -29 65 -29 78 -113 8 -48 91 -297 139 -415 19 -47 32 -88
29 -92 -2 -5 -127 -8 -277 -8 -270 0 -273 0 -293 -22 -11 -13 -24 -33 -27 -45
-9 -28 16 -88 42 -102 15 -8 400 -11 1292 -11 1394 0 1314 -4 1340 60 10 24
10 36 0 60 -25 59 -28 60 -331 60 -153 0 -284 3 -293 6 -34 13 -15 155 61 468
40 165 49 193 77 225 61 68 85 107 108 171 23 64 24 65 93 99 237 117 340 410
235 666 -31 76 -33 86 -31 190 3 173 3 172 99 225 151 83 226 167 259 291 15
57 15 74 4 122 -33 147 -176 263 -431 347 -52 18 -100 36 -107 42 -6 5 -14 28
-18 51 -15 94 -77 186 -150 225 -17 8 -63 17 -105 19 -63 4 -82 1 -120 -18z
m178 -219 c16 -32 22 -62 22 -106 0 -81 21 -108 98 -129 200 -55 336 -109 396
-156 57 -45 69 -105 35 -176 -36 -74 -109 -126 -252 -177 -26 -10 -52 -27 -58
-38 -11 -21 -49 -340 -49 -418 0 -33 8 -57 30 -90 72 -109 80 -236 20 -348
-18 -34 -50 -78 -71 -97 -36 -32 -56 -40 -155 -65 -52 -13 -67 -35 -83 -125
-15 -84 -38 -124 -98 -170 -133 -101 -331 -109 -522 -20 -40 19 -86 35 -101
35 -16 0 -51 -16 -81 -36 -30 -20 -83 -51 -119 -68 -59 -28 -74 -31 -165 -31
-91 0 -107 3 -175 33 -41 17 -102 53 -135 78 -70 53 -90 54 -194 9 -105 -45
-167 -20 -196 79 -20 67 -19 123 5 216 24 96 20 113 -54 190 -63 66 -89 114
-106 194 -23 111 9 205 95 284 53 49 129 81 228 97 26 4 47 17 70 42 90 101
139 136 226 163 150 47 299 13 444 -102 58 -45 79 -47 138 -10 61 38 89 49
140 57 59 9 132 -9 184 -45 66 -45 120 -38 150 19 42 82 66 205 75 391 16 305
52 465 122 537 62 65 95 61 136 -17z m-1477 -2314 c46 -24 105 -52 132 -61 52
-20 49 -12 72 -155 19 -109 45 -219 75 -304 11 -33 20 -63 20 -68 0 -10 -191
-11 -206 0 -41 27 -214 512 -214 599 0 45 18 43 121 -11z m767 2 c34 -21 38
-32 22 -74 -25 -64 -65 -290 -76 -424 -4 -47 -12 -88 -18 -92 -14 -10 -168
-10 -183 0 -33 21 -117 299 -129 427 l-7 73 49 7 c65 10 158 45 219 84 53 33
66 33 123 -1z m442 -51 c0 -7 -14 -74 -30 -149 -17 -75 -36 -191 -44 -259 -8
-67 -19 -126 -24 -131 -5 -5 -53 -7 -108 -6 l-99 3 1 115 c2 118 26 265 62
370 l19 55 74 6 c134 10 149 10 149 -4z"/>
<path d="M2454 3080 c-57 -23 -71 -99 -28 -149 21 -26 33 -31 69 -31 36 0 48
5 69 31 68 81 -12 189 -110 149z"/>
</g>
</svg>
