<svg width="440" height="439" viewBox="0 0 440 439" fill="none" xmlns="http://www.w3.org/2000/svg">
<g filter="url(#filter0_d_312_16)">
<path d="M248.239 425.916C249.984 425.798 252.801 426.01 254.287 425.176L255.864 425.44L255.078 425.962C255.406 426.296 255.743 426.504 256.133 426.758C257.564 426.22 258.589 426.619 260.051 426.886C245.693 429.351 231.823 430.549 217.258 430.489C213.455 430.473 209.042 430.788 205.337 429.972C212.505 428.98 221.735 431.614 228.447 428.867C229.293 427.845 232.166 428.113 233.441 427.263L233.721 427.027L234.38 427.288C235.045 427.471 235.733 426.97 236.299 426.672L236.621 426.5L237.412 427.027C238.716 425.723 239.228 426.344 240.576 425.445C241.756 425.445 242.213 425.306 243.213 425.972L244.531 425.445L245.059 425.967L248.239 425.916Z" fill="#0E81F2"/>
<path d="M146.807 13.1109C153.098 10.2919 160.051 8.63993 166.731 6.98693C193.256 0.423925 219.625 -1.39107 246.736 2.20993C250.844 2.31493 254.512 3.38393 258.506 4.16393L273.297 7.33493C313.251 17.8459 348.582 38.1909 377.077 68.2669C389.531 81.4109 400.027 96.2539 408.79 112.063C412.736 119.182 416.494 126.214 419.3 133.872L419.024 135.062C421.013 136.299 421.576 138.975 422.305 141.082C424.358 147.023 426.467 153.142 427.89 159.256C433.366 182.772 436.571 206.332 434.933 230.547C434.177 241.733 432.053 253.249 429.663 264.193C428.345 270.231 426.644 276.052 424.641 281.889C424.067 283.562 423.687 285.78 422.839 287.286C422.525 287.844 422.105 288.214 421.588 288.57C421.668 287.788 421.926 286.878 422.266 286.17C422.655 285.362 422.646 285.058 422.638 284.208C422.632 283.545 422.848 282.992 423.312 282.524C423.636 282.197 423.548 282.374 423.704 281.906L423.828 281.486C424.195 280.596 424.265 280.356 424.139 279.398L424.097 279.113C424.798 278.593 424.872 278.149 425.097 277.342C425.252 276.781 425.361 276.291 425.624 275.769C426.431 274.166 426.194 272.199 426.734 270.676C428.187 266.581 429.887 260.866 429.898 256.439C430.457 255.72 430.598 255.4 430.635 254.478C430.653 254.02 430.642 253.625 430.783 253.183C431.06 252.313 431.112 251.868 430.995 250.939L430.953 250.639L431.475 250.112C431.439 248.989 431.745 247.913 431.75 246.8C431.752 246.294 432.095 243.92 432.268 243.389C432.774 241.834 432.643 240.666 432.535 239.038L433.057 238.511C433.044 237.178 433.232 235.927 433.095 234.592C433.021 233.878 433.536 234.139 433.716 233.633C434.129 232.471 433.407 230.8 433.898 229.481C434.572 227.674 433.926 226.652 434.157 224.9C434.497 222.315 434.744 217.319 434.246 214.782C434.074 213.907 433.35 213.712 432.661 213.332L432.002 213.986C431.119 212.218 430.911 212.901 429.779 211.755C427.463 209.411 425.198 206.797 422.51 205.022C421.489 204.348 421.082 203.287 419.858 202.733C418.481 202.109 417.312 201.181 415.921 200.543C414.847 200.05 414.164 199.685 413.353 198.798L413.149 198.568L412.49 199.222L411.436 197.909C410.183 197.881 409.644 196.983 408.495 196.693C407.865 196.534 408.116 196.684 407.549 196.308C406.883 195.865 406.505 196.291 405.898 196.058C404.61 195.563 403.28 195.377 401.949 195.009C400.225 194.531 398.372 195.622 396.45 194.661C395.906 194.389 395.674 194.599 395.088 194.745L394.824 193.954C393.836 194.201 393.702 194.284 392.979 195.003L392.056 193.822C391.651 194.123 391.664 194.215 391.135 194.215L391.001 193.295C387.877 193.526 390.171 192.87 388.496 191.845C388.438 191.809 387.809 191.873 387.705 191.839C387.256 191.693 386.365 190.76 385.911 190.458C385.347 190.083 385.111 189.289 384.805 188.681L384.014 188.676C382.896 187.558 381.771 186.808 381.377 185.253L379.8 184.463C379.582 183.699 379.393 183.052 379.004 182.353L377.952 182.087C377.905 181.541 377.904 181.124 377.614 180.64C377.39 180.267 377.553 179.937 377.422 179.717C377.098 179.176 375.829 178.673 375.581 178.135C375.555 178.077 375.607 177.178 375.581 177.08C374.948 174.676 371.18 170.692 369.566 168.626C368.064 166.703 367.573 164.431 366.516 162.314C365.841 160.962 364.733 159.8 364.241 158.358C363.69 156.743 361.986 156.118 361.413 154.672L361.343 154.406C360.46 153.846 359.731 153.271 358.967 152.558L358.965 151.77L358.174 151.764C357.087 150.254 356.856 147.598 355.801 146.491C353.93 144.53 353.851 141.803 351.187 140.565L351.579 141.092C351.91 141.631 352.074 142.004 352.535 142.468L352.895 142.806C352.982 144.74 354.267 145.337 354.76 147.008C355.546 149.673 357.824 152.139 358.366 154.791C358.479 155.344 358.576 155.337 358.962 155.727C359.051 156.723 359.344 157.534 359.982 158.303L360.278 158.625C360.367 159.621 360.463 160.416 360.943 161.311C361.677 162.679 362.346 164.303 362.592 165.846L362.656 166.271C363.389 166.855 363.673 167.759 363.785 168.661C363.86 169.261 363.997 169.669 364.238 170.225C364.732 171.362 365.137 172.563 365.376 173.782C365.544 174.642 366.084 175.605 366.089 176.438C366.094 177.086 366.308 177.678 366.699 178.202L366.872 178.401C366.955 178.934 367.036 179.374 366.948 179.914L366.875 180.244L367.532 181.035C367.396 182.689 368.085 183.403 367.93 184.99C368.345 185.838 368.695 186.89 368.538 187.849L368.457 188.154C369.165 189.478 368.614 191.316 369.461 192.453L369.641 192.636L369.54 196.055L369.512 196.327L370.297 197.118L370.241 199.936L370.039 201.863L370.825 202.391C370.766 203.268 370.613 204.291 370.755 205.159C371.227 208.053 371.343 226.225 370.351 228.196C370.022 228.85 370.256 230.095 370.297 230.865L368.542 231.512C369.571 230.02 369.467 228.837 369.551 227.084C370.288 211.761 369.685 196.945 366.434 181.898C361.357 158.403 348.477 133.295 332.222 115.533C306.651 87.5919 272.749 70.1619 235.108 65.8259C229.941 65.2309 224.552 65.3619 219.344 65.1229C216.945 64.7339 212.41 65.5419 210.518 64.5119L212.622 63.7099L211.572 62.6609L211.177 63.3149L208.408 63.4469L208.936 64.2319C206.9 65.0319 204.293 65.1689 202.13 65.4839C202.874 64.6119 205.055 62.5829 205.427 61.6209C205.78 60.7069 205.608 59.2449 205.883 58.2209C206.129 57.3069 206.24 56.7109 206.135 55.7469L206.077 55.2839C205.687 51.9109 202.775 48.8529 200.603 46.4269C199.622 45.3319 198.472 44.5469 197.459 43.5069C194.489 40.4529 189.247 38.2359 185.182 36.9789C181.243 35.7609 175.539 33.1449 171.381 33.5019C169.848 33.6329 165.565 32.9479 163.954 32.5039C161.682 31.8779 159.14 32.1369 156.778 31.9029C152.036 31.4329 147.404 30.6779 142.606 30.6449C139.564 30.6239 138.056 30.2989 135.375 29.1259C133.974 28.5129 133.496 27.5689 132.305 26.7679C131.542 26.2559 129.16 25.4149 128.65 24.8119C127.829 23.8409 127.965 23.5679 126.719 22.7189C132.923 19.1019 140.248 16.4869 146.948 13.8769L146.807 13.1109Z" fill="url(#paint0_linear_312_16)"/>
<path d="M246.736 2.20996C250.844 2.31496 254.512 3.38396 258.506 4.16396L273.297 7.33496C313.251 17.846 348.582 38.191 377.077 68.267C389.531 81.411 400.027 96.254 408.79 112.063C412.736 119.182 416.494 126.214 419.3 133.872L419.024 135.062C419.147 136.022 419.313 136.682 419.747 137.551L419.873 137.796C417.619 140.148 414.521 139.648 411.521 139.756C408.624 136.813 405.405 135.167 402.058 132.904C397.409 129.76 391.951 125.564 388.635 120.95C387.634 119.557 386.173 118.822 384.925 117.576L369.789 102.496C368.061 100.72 367.123 98.374 364.843 96.985C363.507 96.171 362.196 95.167 361.429 93.78C360.858 92.748 360.395 92.928 359.697 92.226C359.237 91.764 359.056 91.003 358.565 90.487L348.1 80.02C345.016 76.852 342.332 73.128 338.81 70.343C335.103 67.413 331.92 63.98 328.396 60.864C315.764 49.693 302.264 39.162 287.543 30.986C286.037 30.15 284.414 30.208 282.901 29.539C281.794 29.048 282.016 28.519 281.448 27.752C281.063 27.231 279.744 26.501 279.179 26.157C276.181 24.333 272.764 23.235 269.692 21.602C266.096 19.689 261.941 16.946 258.689 14.439C257.619 13.615 256.723 12.497 255.605 11.766C254.831 11.261 253.802 11.139 253.003 10.639C251.939 9.97397 251.081 8.94696 250.116 8.14896C249.127 7.33096 246.645 3.23096 246.301 3.08096C245.387 2.67996 244.068 3.05896 242.952 2.52596L246.736 2.20996Z" fill="#F78FFC"/>
<path d="M368.542 231.512L370.297 230.865C370.256 230.095 370.022 228.85 370.351 228.196C371.343 226.225 371.227 208.053 370.755 205.159C370.613 204.291 370.766 203.268 370.825 202.391L370.039 201.863L370.241 199.936L370.297 197.118L369.512 196.327L369.54 196.055L369.641 192.636L369.461 192.453C368.614 191.316 369.165 189.478 368.457 188.154L368.538 187.849C368.695 186.89 368.345 185.838 367.93 184.99C368.085 183.403 367.396 182.689 367.532 181.035L366.875 180.244L366.948 179.914C367.036 179.374 366.955 178.934 366.872 178.401L366.699 178.202C366.308 177.678 366.094 177.086 366.089 176.438C366.084 175.605 365.544 174.642 365.376 173.782C365.137 172.563 364.732 171.362 364.238 170.225C363.997 169.669 363.86 169.261 363.785 168.661C363.673 167.759 363.389 166.855 362.656 166.271L362.592 165.846C362.346 164.303 361.677 162.679 360.943 161.311C360.463 160.416 360.367 159.621 360.278 158.625L359.982 158.303C359.344 157.534 359.051 156.723 358.962 155.727C358.576 155.337 358.479 155.344 358.366 154.791C357.824 152.139 355.546 149.673 354.76 147.008C354.267 145.337 352.982 144.74 352.895 142.806L352.535 142.468C352.074 142.004 351.91 141.631 351.579 141.092L351.187 140.565C353.851 141.803 353.93 144.53 355.801 146.491C356.856 147.598 357.087 150.254 358.174 151.764L358.965 151.77L358.967 152.558C359.731 153.271 360.46 153.846 361.343 154.406L361.413 154.672C361.986 156.118 363.69 156.743 364.241 158.358C364.733 159.8 365.841 160.962 366.516 162.314C367.573 164.431 368.064 166.703 369.566 168.626C371.18 170.692 374.948 174.676 375.581 177.08C375.607 177.178 375.555 178.077 375.581 178.135C375.829 178.673 377.098 179.176 377.422 179.717C377.553 179.937 377.39 180.267 377.614 180.64C377.904 181.124 377.905 181.541 377.952 182.087L379.004 182.353C379.393 183.052 379.582 183.699 379.8 184.463L381.377 185.253C381.771 186.808 382.896 187.558 384.014 188.676L384.805 188.681C385.111 189.289 385.347 190.083 385.911 190.458C386.365 190.76 387.256 191.693 387.705 191.839C387.809 191.873 388.438 191.809 388.496 191.845C390.171 192.87 387.877 193.526 391.001 193.295L391.135 194.215C391.664 194.215 391.651 194.123 392.056 193.822L392.979 195.003C393.702 194.284 393.836 194.201 394.824 193.954L395.088 194.745C395.674 194.599 395.906 194.389 396.45 194.661C398.372 195.622 400.225 194.531 401.949 195.009C403.28 195.377 404.61 195.563 405.898 196.058C406.505 196.291 406.883 195.865 407.549 196.308C408.116 196.684 407.865 196.534 408.495 196.693C409.644 196.983 410.183 197.881 411.436 197.909L412.49 199.222L413.149 198.568L413.353 198.798C414.164 199.685 414.847 200.05 415.921 200.543C417.312 201.181 418.481 202.109 419.858 202.733C421.082 203.287 421.489 204.348 422.51 205.022C425.198 206.797 427.463 209.411 429.779 211.755C430.911 212.901 431.119 212.218 432.002 213.986L432.661 213.332C433.35 213.712 434.074 213.907 434.246 214.782C434.744 217.319 434.497 222.315 434.157 224.9C433.926 226.652 434.572 227.674 433.898 229.481C433.407 230.8 434.129 232.471 433.716 233.633C433.536 234.139 433.021 233.878 433.095 234.592C433.232 235.927 433.044 237.178 433.057 238.511L432.535 239.038C432.643 240.666 432.774 241.834 432.268 243.389C432.095 243.92 431.752 246.294 431.75 246.8C431.745 247.913 431.439 248.989 431.475 250.112L430.953 250.639L430.995 250.939C431.112 251.868 431.06 252.313 430.783 253.183C430.642 253.625 430.653 254.02 430.635 254.478C430.598 255.4 430.457 255.72 429.898 256.439C429.887 260.866 428.187 266.581 426.734 270.676C426.194 272.199 426.431 274.166 425.624 275.769C425.361 276.291 425.252 276.781 425.097 277.342C424.872 278.149 424.798 278.593 424.097 279.113L424.139 279.398C424.265 280.356 424.195 280.596 423.828 281.486L423.704 281.906C423.548 282.374 423.636 282.197 423.312 282.524C422.848 282.992 422.632 283.545 422.638 284.208C422.646 285.058 422.655 285.362 422.266 286.17C421.926 286.878 421.668 287.788 421.588 288.57C422.088 291.551 419.284 296.665 418.038 299.523C411.826 313.767 404.753 327.298 395.767 340.017C368.53 378.569 329.458 406.404 284.609 420.531C276.766 423.002 268.988 425.509 260.831 426.796L260.051 426.886C258.589 426.619 257.564 426.22 256.133 426.758C255.743 426.504 255.406 426.296 255.078 425.962L255.864 425.44L254.287 425.176C252.801 426.01 249.984 425.798 248.239 425.916L245.059 425.967L244.531 425.445L243.213 425.972C242.213 425.306 241.756 425.445 240.576 425.445C239.228 426.344 238.716 425.723 237.412 427.027L236.621 426.5L236.299 426.672C235.733 426.97 235.045 427.471 234.38 427.288L233.721 427.027L233.441 427.263C232.166 428.113 229.293 427.845 228.447 428.867C221.735 431.614 212.505 428.98 205.337 429.972C198.549 430.077 191.426 428.877 184.753 427.765C177.431 426.546 170.085 425.292 162.979 423.111C151.267 420.259 139.134 415.341 128.311 410.071C124.192 408.066 120.229 406.331 116.361 403.833C99.507 395.599 84.292 383.572 70.771 370.671C65.448 365.592 59.765 360.266 55.036 354.636C49.924 348.552 45.517 341.76 41.016 335.222C36.38 328.487 31.232 321.293 28.458 313.553C26.451 310.678 19.032 296.081 18.93 292.664C16.004 287.845 14.417 281.125 12.803 275.701L6.86497 252.582C6.44197 250.696 6.56697 248.232 6.26997 246.232C2.99997 224.161 3.36397 201.032 7.21897 179.069C8.15497 178.179 8.52598 177.664 8.71098 176.373C9.66798 174.571 10.674 172.805 11.317 170.861C11.715 169.659 12.268 169.288 13.291 168.649L13.824 169.171L15.4 167.594L15.933 168.116L16.982 167.067L17.504 167.852L18.298 167.855L18.559 169.171L19.353 169.039L19.614 169.962L20.408 170.094L20.806 170.884L21.462 170.621C21.975 171.501 22.256 172.141 22.517 173.128C22.724 173.912 23.015 174.611 23.175 175.417C23.32 176.155 23.512 176.215 23.833 176.817L24.102 177.613L25.415 178.662C25.417 180.473 25.3 181.605 25.942 183.144C26.347 184.115 25.592 186.076 25.947 187.104C26.864 189.755 27.522 193.444 27.529 196.327C29.121 197.868 28.66 199.436 29.403 201.336C31.002 205.425 31.118 210.529 32.542 214.78L36.616 224.921L38.196 228.567C38.843 230.202 39.905 231.059 40.191 232.974C40.674 233.458 40.678 233.338 40.799 234.06C41.12 235.98 42.666 237.478 43.355 239.302L43.502 239.656C43.813 240.441 43.794 241.412 44.507 241.888C45.22 242.364 45.42 242.9 45.725 243.652L49.153 249.996C50.511 252.713 52.581 255.596 54.688 257.752C55.622 258.709 56.6 259.836 56.8 261.182C59.258 263.434 60.577 266.025 62.578 268.626C66.716 274.004 71.291 279.3 76.306 283.862C77.123 284.605 77.808 285.769 78.943 285.971C79.955 287.298 82.381 291.641 83.749 292.094C84.845 292.457 86.563 294.638 87.416 295.523C86.761 293.796 85.856 292.288 84.908 290.711C85.018 289.633 85.093 289.568 85.803 288.737L86.855 289.923L87.124 289.396C86.685 288.433 86.275 287.351 85.476 286.627C84.583 285.817 83.599 282.344 82.969 280.97L83.848 280.845C94.382 300.151 106.575 317.532 123.794 331.588C138.602 343.195 154.443 352.462 172.376 358.438C176.534 359.823 180.854 360.602 185.03 361.911C190.687 362.935 196.301 364.282 202.023 364.909C205.184 365.255 208.324 364.976 211.485 365.135C233.432 366.233 253.17 363.471 273.841 355.95C278.051 354.418 282.038 352.28 286.2 350.61C288.296 349.212 290.625 348.342 292.84 347.195C296.104 345.505 299.292 343.377 302.362 341.357C321.854 328.529 337.754 311.25 349.798 291.343C358.797 276.469 364.91 258.5 367.796 241.388C368.341 238.156 369.347 234.743 368.542 231.512ZM18.93 292.664C19.032 296.081 26.451 310.678 28.458 313.553C29.055 313.735 30.184 313.928 30.693 314.233C31.935 314.979 33.71 318.19 34.79 319.489C37.059 322.218 46.769 333.196 49.565 333.991C49.584 332.698 42.207 325.549 40.775 323.662L38.865 321.3C38.234 320.086 37.398 318.974 36.228 318.136C35.187 317.391 34.93 316.723 34.165 315.743C32.513 313.627 31.926 310.788 30.33 308.685C28.811 306.685 26.745 303.542 26.078 301.124C25.752 299.941 25.199 298.439 24.439 297.471L24.099 297.044C23.407 295.781 22.8 295.174 21.729 294.147C21.297 295.002 21.801 296.349 21.992 297.305C21.33 296.398 20.974 295.367 20.358 294.44C19.868 293.704 20.244 292.978 19.619 292.037L18.93 292.664Z" fill="url(#paint1_linear_312_16)"/>
<path d="M118.549 400.944C122.345 403.118 125.918 405.757 129.797 407.776C135.176 410.576 140.936 412.781 146.445 415.338V415.685C145.536 415.637 144.906 415.583 144.072 415.157L143.015 415.289C144.915 415.852 146.68 416.775 148.552 417.269C150.495 417.782 153.283 419.282 155.146 419.117L155.433 419.333C157.904 420.98 160.85 420.852 162.979 423.111C151.267 420.259 139.134 415.341 128.311 410.071C124.192 408.066 120.229 406.331 116.361 403.833C118.155 404.035 119.519 404.14 121.026 405.238C122.172 406.073 123.369 406.94 124.824 406.989C124.005 406.18 123.097 405.243 122.106 404.665C120.596 403.783 119.614 402.301 118.549 400.944Z" fill="#1EDDEF"/>
<path d="M18.9299 292.664L19.6189 292.037C20.2439 292.978 19.8679 293.704 20.3579 294.44C20.9739 295.367 21.3299 296.398 21.9919 297.305C21.8009 296.349 21.2969 295.002 21.7289 294.147C22.7999 295.174 23.4069 295.781 24.0989 297.044L24.4389 297.471C25.1989 298.439 25.7519 299.941 26.0779 301.124C26.7449 303.542 28.8109 306.685 30.3299 308.685C31.9259 310.788 32.5129 313.627 34.1649 315.743C34.9299 316.723 35.1869 317.391 36.2279 318.136C37.3979 318.974 38.2339 320.086 38.8649 321.3L40.7749 323.662C42.2069 325.549 49.5839 332.698 49.5649 333.991C46.7689 333.196 37.0589 322.218 34.7899 319.489C33.7099 318.19 31.9349 314.979 30.6929 314.233C30.1839 313.928 29.0549 313.735 28.4579 313.553C26.4509 310.678 19.0319 296.081 18.9299 292.664Z" fill="#1EDDEF" fill-opacity="0.988235"/>
<path d="M83.848 280.845C94.382 300.151 106.575 317.532 123.794 331.588C138.602 343.195 154.443 352.462 172.376 358.438C176.534 359.823 180.854 360.602 185.03 361.911L182.832 362.685C182.031 361.892 181.524 362.429 180.723 361.636L180.146 361.65C178.683 361.667 173.722 360.427 172.812 359.527C172.225 359.584 171.9 359.497 171.371 359.274L170.703 358.994L169.78 358.733C169.261 358.504 169.25 358.343 168.62 358.264C167.332 358.102 166.147 357.703 165.093 356.917L164.902 356.756C164.311 356.707 163.978 356.64 163.436 356.369L162.925 356.097C162.489 355.895 162.322 355.91 161.961 355.553L161.738 355.308L160.815 355.042L160.156 354.647C159.399 354.403 158.936 354.436 158.179 353.988C157.714 353.712 157.617 353.598 157.058 353.518C156.08 353.378 155.697 352.884 154.836 352.539C154.354 352.346 153.888 352.132 153.433 351.878L152.773 351.483C152.23 351.239 151.769 351.137 151.26 350.799C150.747 350.458 151.122 350.565 150.4 350.557C150.702 351.474 154.299 353.066 155.301 353.733C156.023 354.215 156.648 354.699 157.503 354.913C158.789 355.235 159.887 356.03 161.211 356.363C162.002 356.562 162.393 356.656 163.057 357.154V357.937C158.328 356.797 154.628 354.241 150.405 352.04C144.521 348.973 138.325 345.933 132.734 342.358C130.739 341.082 128.944 339.294 126.979 337.913C123.314 335.339 120.122 333.165 116.937 329.924C112.126 325.761 108.086 321.178 103.502 316.815C101.721 315.121 99.434 313.636 97.968 311.669L91.657 303.09C90.826 302.028 89.939 300.418 89.495 299.148C89.314 298.63 89.365 298.475 88.943 298.073C88.024 297.197 87.69 296.779 87.416 295.523C86.761 293.796 85.856 292.288 84.908 290.711C85.018 289.633 85.093 289.568 85.803 288.737L86.855 289.923L87.124 289.396C86.685 288.433 86.275 287.351 85.476 286.627C84.583 285.817 83.599 282.344 82.969 280.97L83.848 280.845Z" fill="#0E81F2"/>
<path d="M28.458 313.553C29.055 313.735 30.184 313.928 30.693 314.233C31.935 314.979 33.71 318.19 34.79 319.489C37.059 322.218 46.769 333.196 49.565 333.991C54.286 338.194 58.149 342.914 62.646 347.251L81.299 365.14C83.022 366.903 84.311 369.052 86.064 370.78C88.746 373.423 91.912 375.496 94.522 378.24C96.612 380.437 98.287 382.915 100.303 385.151C101.854 386.872 103.662 388.367 105.186 390.11C106.272 391.353 107.037 393.001 108.264 394.088C109.947 395.58 112.349 396.764 114.237 398.016C115.595 398.917 117.092 400.306 118.549 400.944C119.614 402.301 120.596 403.783 122.106 404.665C123.097 405.243 124.005 406.18 124.824 406.989C123.369 406.94 122.172 406.073 121.026 405.238C119.519 404.14 118.155 404.035 116.361 403.833C99.507 395.599 84.292 383.572 70.771 370.671C65.448 365.592 59.765 360.266 55.036 354.636C49.924 348.552 45.517 341.76 41.016 335.222C36.38 328.487 31.232 321.293 28.458 313.553Z" fill="#4BF1E9"/>
<path d="M368.542 231.512L370.297 230.865C370.256 230.095 370.022 228.85 370.351 228.196C371.343 226.225 371.227 208.053 370.755 205.159C370.613 204.291 370.766 203.268 370.825 202.391L370.039 201.863L370.241 199.936L370.297 197.118L369.512 196.327L369.54 196.055L369.641 192.636L369.461 192.453C368.614 191.316 369.165 189.478 368.457 188.154L368.538 187.849C368.695 186.89 368.345 185.838 367.93 184.99C368.085 183.403 367.396 182.689 367.532 181.035L366.875 180.244L366.948 179.914C367.036 179.374 366.955 178.934 366.872 178.401L366.699 178.202C366.308 177.678 366.094 177.086 366.089 176.438C366.084 175.605 365.544 174.642 365.376 173.782C365.137 172.563 364.732 171.362 364.238 170.225C363.997 169.669 363.86 169.261 363.785 168.661C363.673 167.759 363.389 166.855 362.656 166.271L362.592 165.846C362.346 164.303 361.677 162.679 360.943 161.311C360.463 160.416 360.367 159.621 360.278 158.625L359.982 158.303C359.344 157.534 359.051 156.723 358.962 155.727C358.576 155.337 358.479 155.344 358.366 154.791C357.824 152.139 355.546 149.673 354.76 147.008C354.267 145.337 352.982 144.74 352.895 142.806L352.535 142.468C352.074 142.004 351.91 141.631 351.579 141.092L351.187 140.565C353.851 141.803 353.93 144.53 355.801 146.491C356.856 147.598 357.087 150.254 358.174 151.764L358.965 151.77L358.967 152.558C359.731 153.271 360.46 153.846 361.343 154.406L361.413 154.672C361.986 156.118 363.69 156.743 364.241 158.358C364.733 159.8 365.841 160.962 366.516 162.314C367.573 164.431 368.064 166.703 369.566 168.626C371.18 170.692 374.948 174.676 375.581 177.08C375.607 177.178 375.555 178.077 375.581 178.135C375.829 178.673 377.098 179.176 377.422 179.717C377.553 179.937 377.39 180.267 377.614 180.64C377.904 181.124 377.905 181.541 377.952 182.087L379.004 182.353C379.393 183.052 379.582 183.699 379.8 184.463L381.377 185.253C381.771 186.808 382.896 187.558 384.014 188.676L384.805 188.681C385.111 189.289 385.347 190.083 385.911 190.458C386.365 190.76 387.256 191.693 387.705 191.839C387.809 191.873 388.438 191.809 388.496 191.845C390.171 192.87 387.877 193.526 391.001 193.295L391.135 194.215C391.664 194.215 391.651 194.123 392.056 193.822L392.979 195.003C393.702 194.284 393.836 194.201 394.824 193.954L395.088 194.745C395.674 194.599 395.906 194.389 396.45 194.661C398.372 195.622 400.225 194.531 401.949 195.009C403.28 195.377 404.61 195.563 405.898 196.058C406.505 196.291 406.883 195.865 407.549 196.308C408.116 196.684 407.865 196.534 408.495 196.693C409.644 196.983 410.183 197.881 411.436 197.909L412.49 199.222L413.149 198.568L413.353 198.798C414.164 199.685 414.847 200.05 415.921 200.543C417.312 201.181 418.481 202.109 419.858 202.733C421.082 203.287 421.489 204.348 422.51 205.022C425.198 206.797 427.463 209.411 429.779 211.755C430.911 212.901 431.119 212.218 432.002 213.986L432.661 213.332C433.35 213.712 434.074 213.907 434.246 214.782C434.744 217.319 434.497 222.315 434.157 224.9C433.926 226.652 434.572 227.674 433.898 229.481C433.407 230.8 434.129 232.471 433.716 233.633C433.536 234.139 433.021 233.878 433.095 234.592C433.232 235.927 433.044 237.178 433.057 238.511L432.535 239.038C432.643 240.666 432.774 241.834 432.268 243.389C432.095 243.92 431.752 246.294 431.75 246.8C431.745 247.913 431.439 248.989 431.475 250.112L430.953 250.639L430.995 250.939C431.112 251.868 431.06 252.313 430.783 253.183C430.642 253.625 430.653 254.02 430.635 254.478C430.598 255.4 430.457 255.72 429.898 256.439C429.887 260.866 428.187 266.581 426.734 270.676C426.194 272.199 426.431 274.166 425.624 275.769C425.361 276.291 425.252 276.781 425.097 277.342C424.872 278.149 424.798 278.593 424.097 279.113L424.139 279.398C424.265 280.356 424.195 280.596 423.828 281.486L423.704 281.906C423.548 282.374 423.636 282.197 423.312 282.524C422.848 282.992 422.632 283.545 422.638 284.208C422.646 285.058 422.655 285.362 422.266 286.17C421.926 286.878 421.668 287.788 421.588 288.57C422.088 291.551 419.284 296.665 418.038 299.523C411.826 313.767 404.753 327.298 395.767 340.017C368.53 378.569 329.458 406.404 284.609 420.531C276.766 423.002 268.988 425.509 260.831 426.796L260.051 426.886C258.589 426.619 257.564 426.22 256.133 426.758C255.743 426.504 255.406 426.296 255.078 425.962L255.864 425.44L254.287 425.176C252.801 426.01 249.984 425.798 248.239 425.916C247.105 423.447 245.47 422.763 243.18 421.782L242.817 421.617L242.29 421.88C241.718 420.927 240.463 420.816 239.521 419.645L239.126 420.298L238.208 419.85C236.936 418.493 235.222 418.153 233.839 417C233.284 416.538 232.747 416.177 232.12 415.819L231.878 415.682L231.875 414.894L231.084 414.888L230.296 414.1C230.037 413.693 230.172 413.431 229.754 413.024C227.686 411.01 227.315 408.833 226.457 406.241L226.343 405.93C226.493 405.089 226.604 404.541 227.104 403.82C227.384 403.417 227.617 403.139 227.759 402.659C228.272 400.923 229.596 399.88 230.201 398.077L230.339 397.647L230.867 397.537C231.016 395.24 233.52 395.1 234.243 393.274L234.644 393.406C235.776 392.747 236.831 392.176 238.134 391.931L238.728 391.824L238.73 391.165C239.666 390.547 240.173 390.415 241.298 390.38L241.631 390.374C242.21 389.331 242.298 389.257 242.158 388.006L242.949 387.21C242.726 386.853 241.642 385.919 241.631 385.897C241.585 385.806 241.796 385.242 241.763 385.104C241.648 384.63 240.867 383.712 240.576 383.261C240.541 382.126 240.367 380.972 240.972 379.96C241.979 380.372 243.164 381.304 244.262 381.146C244.235 380.496 244.165 379.969 244.43 379.358L244.663 378.905C245.144 377.786 245.397 377.43 246.377 376.664C246.377 377.344 246.417 377.063 246.245 377.752L246.113 378.246L246.904 379.032L247.426 378.246C247.673 377.943 247.948 377.74 248.179 377.406C248.77 376.552 249.255 376.001 250.068 375.351L250.332 376.137L250.862 376.14C251.45 375.65 252.335 375.149 252.573 374.423L251.65 374.028L251.123 375.082L250.464 374.423C250.824 374.032 251.212 373.508 251.737 373.332L252.178 373.231C255.007 372.506 257.925 372.345 260.733 371.636L261.274 371.495L260.747 372.314L259.033 372.446L258.374 373.632C258.684 374.563 259.126 374.972 259.824 375.61L260.483 375.085L261.011 375.478L262.065 374.558L262.593 374.95L263.779 373.769L264.57 374.028C265.047 373.582 265.506 373.063 266.12 372.819C266.537 372.654 266.351 372.805 266.721 372.435L266.943 372.187L267.339 373.369C268.648 373.062 269.741 372.624 270.865 371.875L271.162 371.66L271.426 372.709L269.844 374.291C270.253 375.247 270.206 375.2 271.162 375.61L271.294 376.662L270.5 377.192C270.736 377.535 270.921 377.75 271.252 378.015L271.555 378.246L271.684 379.828L270.898 380.614L270.107 380.086C270.097 379.657 270.102 379.282 270.173 378.855L270.239 378.507C269.388 379.184 269.06 379.032 267.998 379.032C267.795 379.775 267.493 380.245 267.075 380.88L266.68 380.619L267.207 379.301L266.416 379.032L266.152 379.828C265.647 380.766 265.493 381.119 265.356 382.201L266.021 382.333L265.625 381.674C266.747 381.377 267.393 381.421 268.52 381.674L268.001 383.124L269.053 383.519L269.448 382.069L270.102 382.465C270.565 382.825 270.563 382.728 271.157 382.728L270.371 383.783L271.162 384.046L271.426 383.256L272.217 382.992L272.612 382.069C273.302 382.414 273.337 382.304 274.062 382.201L274.458 381.542L275.381 381.937L275.645 381.146C276.014 380.257 276.122 379.728 276.172 378.773C275.599 378.737 275.257 378.835 274.722 379.034L275.246 380.355L274.854 381.141L273.667 379.825L274.062 378.773L273.271 377.977C273.246 377.463 273.276 377.126 273.403 376.615L273.535 376.137L272.349 374.687C271.944 374.988 271.957 375.08 271.428 375.08L271.167 373.764C272.092 372.84 273.006 371.396 274.326 371.391C274.902 370.803 275.337 370.354 276.073 369.984L276.436 369.809L276.702 368.757L277.49 368.755C277.666 368.421 277.726 368.259 278.018 367.969C278.4 367.589 279.199 367.164 279.731 367.175C280.156 367.184 280.415 367.222 280.819 367.062L281.182 366.914C282.513 366.573 283.395 366.334 284.576 365.547L284.873 365.332L285.137 366.382C285.973 365.751 286.78 365.796 287.592 365.309C288.495 364.767 289.42 363.483 290.146 362.696L290.41 363.218H290.938C291.126 362.827 291.297 362.464 291.557 362.114C291.822 361.758 291.731 361.546 291.734 361.109L292.388 360.713L292.261 359.791C292.732 358.901 293.123 358.148 293.311 357.154L291.992 357.418C290.34 357.855 288.279 357.378 286.791 358.016L286.455 358.209C285.763 357.903 285.203 357.764 284.448 357.665L283.557 357.55C281.875 357.215 278.502 359.063 276.699 359.527C275.093 359.941 273.763 360.857 272.12 361.186L271.162 361.372C270.199 361.678 269.708 361.839 268.662 361.885L268.262 361.9C267.517 362.423 266.801 362.929 265.963 363.292L263.516 364.536L262.725 364.009C259.387 365.908 255.488 366.868 252.145 368.639C251.26 369.108 249.8 369.275 248.75 369.546C248.05 369.726 247.676 369.766 247.102 370.221L246.641 370.6C245.994 370.6 246.243 370.623 245.619 370.534C245.016 370.448 244.826 370.607 244.268 370.864C243.826 371.067 243.523 371.257 243.024 371.281C241.544 371.353 240.726 372.381 239.348 372.438C238.446 372.474 238.238 372.829 237.544 373.369C236.757 373.403 235.998 373.391 235.262 373.706C234.557 374.008 234.13 373.626 233.193 374.028L232.4 373.632C231.459 373.892 230.354 373.665 229.469 373.286L229.106 373.105L228.579 373.369C227.11 372.634 225.679 373.413 224.229 372.446L223.306 372.841C221.678 372.027 220.391 373.086 218.955 371.66C216.576 371.734 215.109 370.918 212.888 370.339C212.277 370.18 211.913 370.157 211.375 369.798L211.045 369.551L209.99 369.809C207.797 367.528 205.974 368.82 203.53 367.966C202.493 367.604 201.415 367.629 200.35 367.211C199.439 366.854 198.986 366.133 197.992 365.982C197.236 365.868 196.897 365.635 196.277 365.195C197.219 365.122 198.516 364.879 199.377 365.248C203.817 367.151 209.571 364.826 213.872 366.25C214.301 366.392 214.533 366.462 215 366.382C215.961 366.216 216.342 366.055 217.312 366.297C218.17 366.512 221.079 367.177 221.855 366.904C221.95 366.871 222.535 366.17 222.646 366.118C223.003 365.954 224.731 366.126 225.253 366.127C228.542 366.137 232.951 366.681 236.094 365.855C237.086 365.594 237.674 365.574 238.694 365.783C239.47 365.943 239.026 365.383 239.519 365.195C240.478 364.83 242.295 365.206 243.43 364.941L245.322 364.536C246.732 363.98 248.195 364.367 249.476 363.818C250.589 363.341 251.877 363.673 252.946 363.14C253.531 362.849 254.158 363.106 254.814 363.213L255.21 362.559C256.787 362.696 257.24 362.032 258.77 362.029C259.706 361.169 261.184 361.153 262.329 360.713C263.363 360.316 264.53 360.367 265.427 359.699C266.21 359.116 267.341 359.552 268.262 358.865C269.097 358.783 269.547 358.372 270.305 358.264C270.724 358.204 271.058 358.173 271.426 357.94C272.549 357.227 274.008 357.501 274.919 356.599L275.117 356.363C275.812 356.299 276.624 356.223 277.227 355.831C278.465 355.024 279.722 354.952 280.918 354.249C281.624 353.833 282.341 353.582 283.027 353.194C283.509 352.921 283.647 352.692 284.211 352.597C284.756 352.505 284.485 352.608 285.002 352.349C285.516 352.092 285.259 352.182 285.791 352.004L286.982 351.612L286.2 350.61C288.296 349.212 290.625 348.342 292.84 347.195C296.104 345.505 299.292 343.377 302.362 341.357C321.854 328.529 337.754 311.25 349.798 291.343C358.797 276.469 364.91 258.5 367.796 241.388C368.341 238.156 369.347 234.743 368.542 231.512Z" fill="#4493FC"/>
<path d="M230.339 397.647C231.66 398.548 232.96 399.736 234.38 400.395L235.039 400.791L235.835 401.184L236.357 400.662L237.148 401.447L239.521 399.08L240.049 399.866C241.124 398.973 241.884 398.902 242.817 398.286L243.746 398.547L244.056 398.319C245.105 397.622 245.796 397.391 247.036 397.624C247.998 396.67 248.829 397.36 249.459 396.737C250.847 395.363 257.129 394.278 259.038 394.329C260.361 393.45 260.937 394.165 262.203 393.802L265.625 392.752C266.677 392.406 267.047 393.176 267.998 392.225L268.657 392.75L268.904 392.56C269.791 392.028 270.485 392.464 271.426 391.698C272.432 391.836 272.684 391.288 273.403 391.824L273.799 391.17L274.59 391.165L274.804 390.937C275.144 390.6 275.507 390.371 275.908 390.116L276.567 390.64L277.49 389.588C278.203 389.705 278.111 389.821 278.767 389.406C279.525 388.927 280.018 388.768 280.918 388.663L281.709 388.006L282.368 388.531L283.687 387.74L284.214 388.004L285.269 387.74L285.796 388.133L286.191 387.823C287.141 387.15 288.456 386.84 289.531 386.125C290.015 385.804 290.408 385.674 290.962 385.517L293.577 384.576C294.965 384.109 296.205 384.082 297.332 383.12C297.813 382.708 297.92 382.698 298.452 382.467L300.042 381.652C300.668 381.339 300.4 381.444 301.023 381.355C301.713 381.256 301.955 380.942 302.539 380.624L302.877 380.499C303.371 380.3 303.122 380.402 303.635 379.964C304.401 379.309 305.366 379.223 306.23 378.515L308.34 376.933C309.731 376.028 310.829 376.069 311.768 374.824L312.3 375.346L312.541 375.135C313.552 374.269 314.304 373.874 315.609 373.653C316.249 373.544 316.504 373.335 317.018 372.931C317.678 372.411 318.544 372.082 319.305 371.733C320.287 371.283 320.808 370.869 321.523 370.073C322.435 369.058 324.109 368.033 325.293 367.355C327.019 366.367 328.587 364.892 330.23 363.745L330.491 362.43L332.262 361.415C332.927 361.083 333.091 360.698 333.389 360.059L334.446 360.186L334.71 359.266C335.58 358.819 336.419 358.403 337.344 358.079L338.135 356.896L338.794 357.42C340.093 356.104 343.758 352.158 345.257 351.884L345.522 351.355C346.298 349.909 347.649 349.164 348.421 347.665C348.858 346.816 349.969 345.444 350.796 345.026L350.985 344.722C352.094 342.97 353.828 341.35 355.276 339.885C356.305 338.843 357.686 337.673 358.874 336.78C360.165 335.809 360.841 334.4 361.865 333.167L362.656 333.296L362.659 332.373L363.98 332.107L364.502 331.316L363.98 331.053L365.557 330.262L365.641 329.818C365.829 329.073 366.2 328.527 366.611 327.894C367.657 327.543 367.991 326.982 368.723 326.175L368.199 325.78C369.539 324.479 370.759 323.443 371.624 321.827L372.175 321.112C373.505 319.323 374.565 317.144 375.168 315.011C375.415 314.136 376.054 313.393 376.37 312.465C376.9 310.907 377.847 310.147 377.691 308.379C378.426 307.644 377.92 307.119 378.466 306.574C378.81 306.23 378.701 306.37 378.856 305.978C379.338 304.763 380.477 303.534 381.116 302.317L381.91 301.26L382.189 300.906C383.306 299.51 384.397 298.516 385.335 297.044L386.128 296.251L386.389 294.935L388.103 293.864C389.804 292.734 390.843 293.42 392.712 293.353C393.353 294.159 393.897 294.962 394.822 295.462C395.299 296.365 395.644 297.097 395.876 298.099L396.023 298.655C396.446 300.394 396.154 302.875 396.137 304.687L395.89 305.017C395.536 305.548 395.642 305.367 395.496 305.955C394.572 309.678 390.769 312.276 389.021 315.495L388.437 316.249C388.19 316.581 388.1 316.877 387.939 317.251C387.186 319.003 384.588 320.064 384.275 321.822L383.223 322.088L382.666 323.258C382.232 324.122 381.382 324.406 381.111 325.384C380.813 326.459 380.404 327.411 380.219 328.522C380.057 329.495 379.496 330.15 378.965 330.946C378.611 331.477 378.814 331.135 378.645 331.732C378.171 333.405 376.197 334.344 375.837 336.059L373.73 337.907L373.728 338.696C372.264 339.779 369.564 341.373 368.457 342.648L367.4 342.914L367.235 343.303C366.663 344.486 364.154 346.014 363.125 347.149C362.63 347.693 362.637 348.222 362.009 348.815C361.382 349.407 361.232 349.696 360.949 350.478C360.561 351.551 359.711 352.135 359.49 353.331C358.033 354.836 356.697 356.346 354.878 357.415C351.324 359.504 345.527 360.957 343.408 364.536V365.064L342.087 365.588L341.826 366.645L340.769 367.041L340.771 367.7C340.308 367.815 339.857 367.814 339.524 368.165C338.973 368.746 338.488 369.096 337.829 369.548C336.702 370.322 335.862 371.401 334.707 372.177C333.445 373.025 332.053 375.559 330.956 375.927C329.729 376.339 329.213 377.751 327.849 378.243C326.63 378.683 326.135 379.667 325.131 380.041C324.408 380.311 324.18 380.613 323.633 381.141C322.26 382.466 321.426 383.47 319.81 384.571C318.785 385.269 318.373 385.595 317.155 386.004C316.594 386.192 316.18 386.579 315.723 386.941C315.215 386.944 312.926 387.429 312.49 387.718C311.962 388.069 312.139 387.965 311.552 388.112C310.572 388.359 309.815 388.936 308.833 389.184C308.264 389.327 308.008 389.53 307.558 389.889L306.667 390.502C306.14 390.842 305.817 391.178 305.439 391.687L304.648 391.692L304.41 391.937C303.786 392.554 304.495 391.866 303.723 392.483L303.198 393.008L302.668 393.011C302.194 393.484 302.337 393.534 301.614 393.538C301.14 394.012 301.282 394.062 300.559 394.065L300.034 394.59L299.696 394.574C297.995 394.574 296.017 396.038 294.629 396.96C293.795 397.514 290.589 400.53 290.146 400.651C289.763 400.756 289.342 400.415 288.96 400.525C288.662 400.61 288.594 401.079 288.301 401.179C287.532 401.44 286.209 400.976 285.395 401.184C285.09 401.261 284.914 401.626 284.609 401.706C282.827 402.173 279.133 400.994 277.686 401.955C277.154 402.308 276.775 402.346 276.169 402.499C275.041 402.785 274.031 403.272 273.008 403.815L272.085 403.688L271.689 404.342C270.348 404.351 270.701 405.163 269.844 405.397C269.43 405.51 268.355 404.988 267.998 405.139C266.688 405.69 267.463 405.947 265.757 405.798L265.477 406.092C265.107 406.459 264.744 406.704 264.307 406.979L263.779 406.452C261.839 406.759 260.377 407.452 258.734 408.512L254.287 411.197L253.496 410.675C252.851 410.836 252.577 411.11 252.046 411.334L251.748 411.374C251.242 411.473 251.023 411.756 250.628 412.048C249.888 412.595 249.095 412.532 248.486 413.306L247.954 412.784C247.296 413.197 245.698 414.779 245.059 414.888C244.113 415.05 243.908 414.761 242.949 415.416C241.935 416.108 241.991 416.47 241.365 417.264C240.642 418.18 239.09 418.947 238.208 419.85C236.936 418.493 235.222 418.153 233.839 417C233.284 416.538 232.747 416.177 232.12 415.819L231.878 415.682L231.875 414.894L231.084 414.888L230.296 414.1C230.037 413.693 230.172 413.431 229.754 413.024C227.686 411.01 227.315 408.833 226.457 406.241L226.343 405.93C226.493 405.089 226.604 404.541 227.104 403.82C227.384 403.417 227.617 403.139 227.759 402.659C228.272 400.923 229.596 399.88 230.201 398.077L230.339 397.647Z" fill="#0E81F2"/>
<path d="M7.21899 179.069L12.234 155.974C17.438 136.629 26.358 118.958 36.379 101.754C40.358 94.9241 45.252 88.8921 50.061 82.6931C69.516 57.6171 94.275 38.0751 122.41 23.5281C130.052 19.5761 138.473 15.3301 146.807 13.1111L146.948 13.8771C140.248 16.4871 132.923 19.1021 126.719 22.7191C127.965 23.5681 127.829 23.8411 128.65 24.8121C129.16 25.4151 131.542 26.2561 132.305 26.7681C133.496 27.5691 133.974 28.5131 135.375 29.1261C138.056 30.2991 139.564 30.6241 142.606 30.6451C147.404 30.6781 152.036 31.4331 156.778 31.9031C159.14 32.1371 161.682 31.8781 163.954 32.5041C165.565 32.9481 169.848 33.6331 171.381 33.5021C175.539 33.1451 181.243 35.7611 185.182 36.9791C189.247 38.2361 194.489 40.4531 197.459 43.5071C198.472 44.5471 199.622 45.3321 200.603 46.4271C202.775 48.8531 205.687 51.9111 206.077 55.2841L206.135 55.7471C206.24 56.7111 206.129 57.3071 205.883 58.2211C205.608 59.2451 205.78 60.7071 205.427 61.6211C205.055 62.5831 202.874 64.6121 202.13 65.4841C204.293 65.1691 206.9 65.0321 208.936 64.2321L208.408 63.4471L211.177 63.3151L211.572 62.6611L212.622 63.7101L210.518 64.5121C212.41 65.5421 216.945 64.7341 219.344 65.1231C210.948 65.6291 202.794 65.9861 194.46 67.3351C187.464 68.4681 180.587 70.3971 173.723 72.1371C162.176 76.5721 151.038 81.1641 140.39 87.5851C124.736 97.0221 111.165 109.799 99.873 124.093C91.985 135.067 84.984 146.596 79.802 159.116C69.613 183.736 66.575 213.423 70.942 239.632C71.537 243.207 72.71 246.917 73.048 250.495L83.848 280.845L82.969 280.97C83.599 282.344 84.583 285.817 85.476 286.627C86.275 287.351 86.685 288.433 87.124 289.396L86.855 289.923L85.803 288.737C85.093 289.568 85.018 289.633 84.908 290.711C85.856 292.288 86.761 293.796 87.416 295.523C86.563 294.638 84.845 292.457 83.749 292.094C82.381 291.641 79.955 287.298 78.943 285.971C77.808 285.769 77.123 284.605 76.306 283.862C71.291 279.3 66.716 274.004 62.578 268.626C60.577 266.025 59.258 263.434 56.8 261.182C56.6 259.836 55.622 258.709 54.688 257.752C52.581 255.596 50.511 252.713 49.153 249.996L45.725 243.652C45.42 242.9 45.22 242.364 44.507 241.888C43.794 241.412 43.813 240.441 43.502 239.656L43.355 239.302C42.666 237.478 41.12 235.98 40.799 234.06C40.678 233.338 40.674 233.458 40.191 232.974C39.905 231.059 38.843 230.202 38.196 228.567L36.616 224.921L32.542 214.78C31.118 210.529 31.002 205.425 29.403 201.336C28.66 199.436 29.121 197.868 27.529 196.327C27.522 193.444 26.864 189.755 25.947 187.104C25.592 186.076 26.347 184.115 25.942 183.144C25.3 181.605 25.417 180.473 25.415 178.662L24.102 177.613L23.833 176.817C23.512 176.215 23.32 176.155 23.175 175.417C23.015 174.611 22.724 173.912 22.517 173.128C22.256 172.141 21.975 171.501 21.462 170.621L20.806 170.884L20.408 170.094L19.614 169.962L19.353 169.039L18.559 169.171L18.298 167.855L17.504 167.852L16.982 167.067L15.933 168.116L15.4 167.594L13.824 169.171L13.291 168.649C12.268 169.288 11.715 169.659 11.317 170.861C10.674 172.805 9.668 174.571 8.711 176.373C8.526 177.664 8.15499 178.179 7.21899 179.069Z" fill="url(#paint2_linear_312_16)"/>
<path d="M70.896 255.604C70.125 251.562 68.742 247.619 68.431 243.504L67.079 226.897C67.08 226.102 67.593 225.87 68.135 225.328L68.139 212.119C68.139 210.457 68.536 208.258 67.613 206.873L68.135 206.346C68.113 205.608 68.14 205.065 68.401 204.368C68.838 203.204 68.812 202.58 68.667 201.336C67.659 202.467 68.302 203.859 67.376 205.047C66.587 203.318 66.735 200.033 67.439 198.22C68.558 195.336 67.609 192.19 68.2 189.185C69.994 180.056 72.778 170.455 76.104 161.789C76.396 161.028 76.603 160.791 76.59 159.962C76.557 157.976 77.447 156.538 77.893 154.673C78.47 152.259 80.609 150.42 81.663 148.166C82.698 145.951 84.406 143.869 85.687 141.764C88.665 136.87 91.406 132.24 95.128 127.848C95.729 127.138 96.913 125.331 97.666 124.894C98.252 124.553 99.22 124.329 99.873 124.093C91.985 135.067 84.984 146.596 79.802 159.116C69.613 183.736 66.575 213.423 70.942 239.632C71.537 243.207 72.71 246.917 73.048 250.495L83.848 280.845L82.969 280.97C81.726 278.737 80.662 276.391 79.868 273.972C79.219 275.187 80.701 278.408 81.051 279.908C81.655 282.494 83.972 284.905 83.56 287.547L83.011 287.392C82.223 285.691 80.436 284.186 79.857 282.684L79.742 282.277C79.574 281.836 79.388 281.555 79.346 281.066C79.122 278.463 76.998 273.592 75.812 271.198C75.321 270.208 74.19 268.87 74.022 267.862C73.91 267.19 74.03 267.094 73.606 266.478C72.661 265.104 71.599 261.752 71.449 260.099L70.896 255.604Z" fill="#0E81F2"/>
<path d="M7.21899 179.069L12.234 155.974C17.438 136.629 26.358 118.958 36.379 101.754C40.358 94.9241 45.252 88.8921 50.061 82.6931C69.516 57.6171 94.275 38.0751 122.41 23.5281C130.052 19.5761 138.473 15.3301 146.807 13.1111L146.948 13.8771C140.248 16.4871 132.923 19.1021 126.719 22.7191C127.965 23.5681 127.829 23.8411 128.65 24.8121C129.16 25.4151 131.542 26.2561 132.305 26.7681C133.496 27.5691 133.974 28.5131 135.375 29.1261C138.056 30.2991 139.564 30.6241 142.606 30.6451C147.404 30.6781 152.036 31.4331 156.778 31.9031C159.14 32.1371 161.682 31.8781 163.954 32.5041C165.565 32.9481 169.848 33.6331 171.381 33.5021C175.539 33.1451 181.243 35.7611 185.182 36.9791C189.247 38.2361 194.489 40.4531 197.459 43.5071C198.472 44.5471 199.622 45.3321 200.603 46.4271C202.775 48.8531 205.687 51.9111 206.077 55.2841L206.135 55.7471C206.24 56.7111 206.129 57.3071 205.883 58.2211C205.608 59.2451 205.78 60.7071 205.427 61.6211C205.055 62.5831 202.874 64.6121 202.13 65.4841C204.293 65.1691 206.9 65.0321 208.936 64.2321L208.408 63.4471L211.177 63.3151L211.572 62.6611L212.622 63.7101L210.518 64.5121C212.41 65.5421 216.945 64.7341 219.344 65.1231C210.948 65.6291 202.794 65.9861 194.46 67.3351C187.464 68.4681 180.587 70.3971 173.723 72.1371C175.157 70.8071 175.795 69.9281 177.828 70.0381L178.138 69.8101C179.05 69.2041 180.345 68.7371 181.429 68.6281L182.046 68.9831C183.344 68.1211 185.445 68.4461 186.594 67.6831C187.248 67.2481 186.819 67.5011 187.514 67.3401C188.815 67.0381 189.472 65.7861 190.946 65.3841C192.811 64.8761 193.734 64.1511 194.636 62.5141C194.092 61.3841 193.585 60.2291 192.907 59.1731C192.506 58.5481 192.658 58.8441 192.449 58.0791C192.137 56.9401 191.243 56.2691 190.694 55.2731C187.916 50.2311 184.765 44.7421 179.561 41.8081L179.101 41.5591C178.74 41.3611 178.483 41.1671 178.163 40.9161C176.912 39.9341 175.224 39.6271 173.89 38.7391C172.224 37.6301 167.961 36.1621 165.957 35.9341C158.864 35.1271 150.265 32.0481 143.181 34.0661C138.482 35.4051 133.083 34.6891 128.517 37.0671C126.551 38.0921 124.459 38.8371 122.537 39.9531C120.241 41.2851 117.672 42.1651 115.427 43.6041C113.204 45.0291 111.297 46.8771 109.062 48.2701C105.772 50.3211 102.273 52.2241 99.296 54.7331C96.743 56.8841 95.024 59.7731 92.391 61.9131C90.44 63.5001 87.812 64.3771 86.005 65.9861C85.091 66.7991 84.559 68.2631 83.841 69.2611C82.61 70.9751 80.47 72.3251 79.793 74.3681L78.154 74.3461L77.952 74.7851C77.005 76.6291 72.964 78.6171 71.296 80.0541C69.366 81.7181 68.483 83.6801 66.692 85.4711C64.804 87.3581 63.567 90.6231 60.724 91.2251L54.947 99.3361C55.316 99.6541 55.622 99.7121 56.08 99.8541C55.76 101.249 54.683 102.418 53.848 103.556C52.904 103.886 51.496 104.211 50.73 104.837C49.534 105.814 48.619 107.659 47.588 108.88L40.623 117.165C39.762 118.253 38.995 118.627 38.304 119.934C36.781 122.815 32.781 128.685 29.629 129.908C28.048 130.522 26.94 130.725 25.427 131.672L25.034 131.912C24.086 132.557 23.547 133.496 22.357 133.735C19.002 137.6 17.566 142.563 16.013 147.367C12.921 156.93 10.719 166.536 8.711 176.373C8.526 177.664 8.15499 178.179 7.21899 179.069Z" fill="url(#paint3_linear_312_16)"/>
</g>
<defs>
<filter id="filter0_d_312_16" x="0.0499268" y="0.388916" width="439.312" height="438.147" filterUnits="userSpaceOnUse" color-interpolation-filters="sRGB">
<feFlood flood-opacity="0" result="BackgroundImageFix"/>
<feColorMatrix in="SourceAlpha" type="matrix" values="0 0 0 0 0 0 0 0 0 0 0 0 0 0 0 0 0 0 127 0" result="hardAlpha"/>
<feOffset dy="4"/>
<feGaussianBlur stdDeviation="2"/>
<feComposite in2="hardAlpha" operator="out"/>
<feColorMatrix type="matrix" values="0 0 0 0 0 0 0 0 0 0 0 0 0 0 0 0 0 0 0.25 0"/>
<feBlend mode="normal" in2="BackgroundImageFix" result="effect1_dropShadow_312_16"/>
<feBlend mode="normal" in="SourceGraphic" in2="effect1_dropShadow_312_16" result="shape"/>
</filter>
<linearGradient id="paint0_linear_312_16" x1="338.457" y1="58.481" x2="252.208" y2="146.131" gradientUnits="userSpaceOnUse">
<stop stop-color="#EC88FD"/>
<stop offset="1" stop-color="#3094FC"/>
</linearGradient>
<linearGradient id="paint1_linear_312_16" x1="183.647" y1="244.699" x2="70.4947" y2="354.759" gradientUnits="userSpaceOnUse">
<stop stop-color="#165DFD"/>
<stop offset="1" stop-color="#00E8FA"/>
</linearGradient>
<linearGradient id="paint2_linear_312_16" x1="167.548" y1="196.241" x2="49.4811" y2="99.7221" gradientUnits="userSpaceOnUse">
<stop stop-color="#005ADC"/>
<stop offset="1" stop-color="#1B87FE"/>
</linearGradient>
<linearGradient id="paint3_linear_312_16" x1="141.119" y1="122.373" x2="77.1818" y2="54.7085" gradientUnits="userSpaceOnUse">
<stop stop-color="#456AFC"/>
<stop offset="1" stop-color="#52B5FC"/>
</linearGradient>
</defs>
</svg>
