<svg width="345" height="57" viewBox="0 0 345 57" fill="none" xmlns="http://www.w3.org/2000/svg">
<path d="M169.168 11.0713L177.947 11.025C178.198 11.0216 178.322 11.1434 178.318 11.3904L178.198 19.7081C178.195 19.8054 178.154 19.8978 178.084 19.9653C178.014 20.0327 177.919 20.0697 177.822 20.0684L168.698 19.986C168.677 19.986 168.656 19.9902 168.637 19.9983C168.617 20.0063 168.6 20.0182 168.585 20.0331C168.57 20.0479 168.559 20.0656 168.551 20.0849C168.544 20.1042 168.54 20.1249 168.541 20.1456C168.611 26.1848 168.651 33.3924 168.661 41.7684C168.666 47.6 175.251 45.1757 178.261 44.2184C178.304 44.2043 178.35 44.2 178.396 44.2055C178.441 44.2111 178.484 44.2265 178.523 44.2507C178.561 44.2748 178.594 44.307 178.618 44.3451C178.642 44.3831 178.658 44.426 178.663 44.4706L179.745 53.2206C179.769 53.4299 179.682 53.5723 179.484 53.6478C175.627 55.1061 171.842 55.6174 168.128 55.1816C162.082 54.4662 157.692 50.8015 157.677 44.5118C157.659 36.575 157.657 28.4787 157.671 20.2228C157.671 20.1614 157.647 20.1025 157.603 20.059C157.558 20.0156 157.499 19.9912 157.436 19.9912L152.409 20.0221C152.364 20.0227 152.32 20.0147 152.278 19.9984C152.237 19.9821 152.199 19.9578 152.167 19.9271C152.136 19.8964 152.111 19.8598 152.094 19.8195C152.077 19.7792 152.069 19.7361 152.069 19.6926L152.174 11.1125C152.177 11.0164 152.226 10.9684 152.32 10.9684L157.3 10.9993C157.386 10.9993 157.469 10.9662 157.529 10.9073C157.59 10.8484 157.624 10.7686 157.624 10.6853L157.671 0.303675C157.671 0.128675 157.76 0.0411735 157.938 0.0411735L168.238 0C168.43 0 168.525 0.0943604 168.525 0.283086L168.557 10.4743C168.56 10.8757 168.764 11.0748 169.168 11.0713Z" fill="black"/>
<path d="M286.418 20.3463C286.478 26.9517 286.488 33.7836 286.45 40.8419C286.429 43.997 287.511 46.0507 291.137 45.4279C292.817 45.1397 294.444 44.7502 296.018 44.2595C296.064 44.2448 296.113 44.2402 296.161 44.2462C296.209 44.2521 296.256 44.2685 296.296 44.294C296.337 44.3196 296.372 44.3538 296.398 44.3941C296.424 44.4344 296.441 44.4798 296.447 44.5272L297.623 53.2257C297.647 53.3904 297.581 53.5019 297.424 53.5603C288.091 57.086 275.45 56.0618 275.507 43.3176C275.542 35.5078 275.542 27.825 275.507 20.2691C275.507 20.0804 275.411 19.9877 275.22 19.9912L269.889 20.0684C269.865 20.0691 269.841 20.0649 269.818 20.0562C269.795 20.0474 269.774 20.0343 269.757 20.0175C269.739 20.0007 269.725 19.9806 269.716 19.9584C269.706 19.9362 269.701 19.9123 269.701 19.8882L269.659 11.2206C269.659 11.1523 269.687 11.0869 269.736 11.0386C269.785 10.9903 269.851 10.9632 269.921 10.9632L275.115 10.9478C275.349 10.9478 275.465 10.8345 275.465 10.6081L275.528 0.190423C275.528 0.168117 275.532 0.146032 275.541 0.125425C275.55 0.104817 275.562 0.086091 275.578 0.0703187C275.594 0.0545464 275.613 0.042036 275.634 0.0335001C275.655 0.0249642 275.678 0.0205688 275.7 0.0205688L286.136 0.0411576C286.342 0.0411576 286.445 0.140668 286.445 0.339688L286.476 10.6801C286.476 10.9203 286.598 11.0387 286.842 11.0353L295.783 10.9735C295.982 10.9701 296.079 11.0662 296.076 11.2617L296.013 19.7029C296.012 19.793 295.974 19.8789 295.91 19.9416C295.845 20.0043 295.758 20.0388 295.668 20.0375L286.758 20.0066C286.528 20.0066 286.415 20.1198 286.418 20.3463Z" fill="black"/>
<path d="M192.548 36.4926C193.248 41.9588 197.502 46.1279 203.104 46.3441C207.332 46.5088 210.687 44.9287 213.712 42.036C213.78 41.9725 213.869 41.9358 213.962 41.9329C214.054 41.9301 214.144 41.9613 214.214 42.0206L221.494 48.125C221.765 48.3549 221.771 48.5882 221.509 48.825C215.921 53.9309 209.393 56.1699 201.923 55.5419C193.983 54.8762 188.061 51.3899 184.156 45.0831C179.86 38.15 179.766 28.2368 183.199 21.0875C185.917 15.4309 191.341 11.725 197.68 10.6647C203.669 9.66103 210.128 10.1912 215.322 13.475C223.589 18.7096 224.849 26.7801 224.66 35.7463C224.658 35.8455 224.616 35.9398 224.544 36.009C224.471 36.0782 224.375 36.117 224.274 36.1169L192.914 36.086C192.635 36.086 192.513 36.2216 192.548 36.4926ZM212.85 27.7632C211.361 21.5456 205.78 18.6426 199.702 20.0478C195.905 20.9228 193.442 23.3848 192.313 27.4338C192.188 27.8765 192.358 28.0995 192.825 28.1029L212.563 28.1235C212.814 28.1235 212.909 28.0034 212.85 27.7632Z" fill="black"/>
<path d="M322.058 10.2375C336.565 10.3765 345.673 20.9485 344.707 34.9176C344.31 40.6206 341.958 45.8809 337.856 49.7978C333.71 53.7576 328.286 55.7049 321.583 55.6397C305.351 55.4801 295.658 41.1044 299.42 26.1265C302.132 15.3485 310.927 10.1294 322.058 10.2375ZM310.938 37.8154C314.162 48.5367 329.552 48.1198 332.473 37.6095C334.401 30.6713 332.311 22.6213 324.593 20.614C322.227 19.9997 319.851 20.1318 317.465 21.0103C310.556 23.5581 309.02 31.4485 310.938 37.8154Z" fill="black"/>
<path d="M136.241 46.4831C141.869 45.2426 141.973 39.3492 136.162 38.0831C133.71 37.5478 131.022 36.973 128.099 36.3588C122.267 35.1286 116.806 32.4625 116.153 25.9823C115.881 23.2544 116.322 20.6568 117.475 18.1897C121.06 10.5412 131.323 9.45512 138.65 10.7831C142.815 11.5345 147.398 13.8507 150.22 17.1706C150.352 17.325 150.345 17.4742 150.199 17.6184L143.745 24.047C143.585 24.2083 143.428 24.2066 143.275 24.0419C140.353 20.9691 135.446 18.4934 131.083 19.2911C125.622 20.2794 124.775 26.5897 130.79 27.8661C139.293 29.6676 151.709 29.9713 151.375 41.7272C151.071 52.3198 142.454 55.9536 132.985 55.65C126.509 55.4407 120.926 53.2566 116.236 49.0978C116.01 48.8953 116.007 48.6911 116.226 48.4853L122.873 42.072C122.905 42.0414 122.942 42.0172 122.983 42.0009C123.024 41.9845 123.068 41.9764 123.112 41.9768C123.156 41.9773 123.2 41.9864 123.241 42.0037C123.281 42.0209 123.318 42.0459 123.349 42.0772C126.866 45.5514 131.125 47.6051 136.241 46.4831Z" fill="black"/>
<path d="M238.541 13.058C239.058 12.7132 239.481 12.3837 240.082 12.1727C249.938 8.75507 262.281 9.06389 265.72 20.7786C266.166 22.2918 266.385 23.9715 266.378 25.8176C266.35 35.9401 266.329 45.7058 266.316 55.1146C266.316 55.1545 266.307 55.194 266.292 55.2308C266.276 55.2677 266.253 55.3012 266.224 55.3294C266.195 55.3576 266.16 55.3799 266.122 55.3952C266.084 55.4104 266.043 55.4183 266.002 55.4183L255.341 55.4646C255.253 55.4646 255.168 55.4299 255.105 55.3681C255.042 55.3064 255.007 55.2226 255.007 55.1352C255.01 46.3166 255.024 37.5769 255.049 28.9161C255.054 24.9992 253.7 21.4065 249.316 20.619C244.341 19.7286 238.321 22.4051 238.311 28.1852C238.293 37.0931 238.3 46.0833 238.332 55.1558C238.332 55.2268 238.303 55.2949 238.252 55.3451C238.201 55.3952 238.132 55.4234 238.06 55.4234L227.222 55.4286C227.177 55.4286 227.135 55.4112 227.103 55.3803C227.072 55.3495 227.054 55.3076 227.054 55.2639L227.023 11.1227C227.023 11.084 227.038 11.0468 227.065 11.0189C227.093 10.9911 227.13 10.9748 227.169 10.9735L237.631 10.8757C237.697 10.8755 237.759 10.9 237.807 10.944C237.855 10.988 237.883 11.0482 237.887 11.1124L238.013 12.8058C238.044 13.1867 238.22 13.2708 238.541 13.058Z" fill="black"/>
<path d="M50.2976 56.1624L48.8601 55.665C48.6849 55.6015 48.558 55.4886 48.4793 55.3263C48.3756 55.1181 48.3524 54.9011 48.4096 54.6754C48.4632 54.4672 48.4185 54.2837 48.2755 54.125C47.2778 52.9925 46.6538 51.7241 46.4035 50.32C46.2855 49.6461 46.0495 49.0181 45.6955 48.436C45.1592 47.5399 44.7354 46.6032 44.4243 45.6259C44.2777 45.1673 44.2133 44.6557 44.2312 44.0912C44.2491 43.622 44.2223 43.1492 44.1508 42.6729C44.1222 42.4859 44.1418 42.306 44.2098 42.1331C44.4422 41.5334 44.4744 40.9707 44.3063 40.445C44.1168 39.8382 43.9273 39.8382 43.7377 40.445L43.2121 42.1278C43.162 42.2901 43.1656 42.4507 43.2228 42.6094C43.2836 42.7858 43.2479 42.9464 43.1156 43.091C43.0011 43.218 42.926 43.3644 42.8903 43.5303C42.8617 43.682 42.8402 43.8319 42.8259 43.9801C42.8254 43.9836 42.8247 43.9876 42.8237 43.9919C42.8228 43.9961 42.8216 44.0006 42.8203 44.0051C42.8189 44.0095 42.8175 44.0138 42.816 44.0177C42.8145 44.0216 42.8131 44.025 42.8116 44.0278C42.8102 44.0306 42.8089 44.0327 42.8078 44.0339C42.8067 44.0351 42.8051 44.035 42.8051 44.035C42.8051 44.035 42.804 44.0331 42.8039 44.031C42.8038 44.0288 42.804 44.0259 42.8045 44.0224C42.8831 43.1192 42.9207 42.2019 42.9171 41.2705C42.9171 40.766 42.8384 40.3003 42.6811 39.8734C42.5309 39.4465 42.5202 39.0144 42.6489 38.5769C42.6829 38.4664 42.6942 38.3501 42.6822 38.2348C42.6703 38.1194 42.6352 38.0073 42.5792 37.9048C42.3682 37.5237 42.3539 37.1462 42.5363 36.7723C42.6114 36.6206 42.6382 36.4618 42.6167 36.296L42.0911 32.4804C42.0768 32.371 42.0964 32.267 42.1501 32.1682C42.3611 31.7624 42.4808 31.3497 42.5095 30.9298C42.5309 30.5558 42.6114 30.1907 42.7508 29.8344C43.0154 29.1464 43.1603 28.4743 43.1853 27.8181C43.2711 25.5002 43.0369 23.2387 42.4826 21.0336C42.2717 20.194 42.2019 19.3719 42.2734 18.5675C42.3485 17.7102 42.277 16.8723 42.0589 16.0538C42.0196 15.9056 42.0267 15.7575 42.0803 15.6093C42.1304 15.4823 42.168 15.3535 42.193 15.223C42.2312 15.0285 42.1969 14.8273 42.0964 14.6567C40.7519 12.3917 39.2215 10.2308 37.5051 8.17391C37.4157 8.06455 37.3012 7.99751 37.1618 7.97282C36.9508 7.93401 36.7398 7.93577 36.5289 7.97811C36.4376 7.99484 36.3432 7.97901 36.2626 7.93345C36.1821 7.88789 36.1205 7.81556 36.089 7.72938C35.9961 7.48242 36.0157 7.2478 36.148 7.02554C36.241 6.87736 36.2249 6.74329 36.0998 6.62334L35.9871 6.50691C35.8763 6.39754 35.8941 6.31463 36.0408 6.25818L36.5235 6.06767C36.5928 6.0405 36.6485 5.98754 36.6786 5.92023C36.7087 5.85291 36.7108 5.77663 36.6844 5.70781L36.5986 5.50142C45.8886 5.48025 55.1751 5.46967 64.458 5.46967C70.3509 5.46967 73.9232 5.56139 75.1747 5.74485C86.9589 7.47007 96.2275 16.493 97.2842 28.2097C98.4749 41.3499 89.6193 53.22 76.623 55.6226C74.5883 56.0001 70.9874 56.1871 65.8203 56.1836C60.6354 56.1801 55.4611 56.173 50.2976 56.1624Z" fill="#2D9CDB"/>
<path d="M36.5985 5.50152L36.6844 5.70791C36.7107 5.77673 36.7086 5.85301 36.6785 5.92033C36.6484 5.98764 36.5927 6.0406 36.5234 6.06777L36.0407 6.25828C35.8941 6.31473 35.8762 6.39764 35.9871 6.50701L36.0997 6.62344C36.2249 6.74339 36.2409 6.87746 36.148 7.02564C36.0157 7.2479 35.996 7.48251 36.089 7.72948C36.1205 7.81566 36.182 7.88799 36.2626 7.93355C36.3432 7.97911 36.4375 7.99494 36.5288 7.97821C36.7398 7.93587 36.9508 7.93411 37.1617 7.97292C37.3012 7.99761 37.4156 8.06464 37.505 8.17401C39.2214 10.2309 40.7519 12.3918 42.0964 14.6568C42.1968 14.8274 42.2311 15.0286 42.1929 15.2231C42.1679 15.3536 42.1304 15.4824 42.0803 15.6094C42.0267 15.7576 42.0195 15.9057 42.0588 16.0539C42.277 16.8724 42.3485 17.7103 42.2734 18.5676C42.2019 19.372 42.2716 20.1941 42.4826 21.0337C43.0368 23.2388 43.271 25.5003 43.1852 27.8182C43.1602 28.4744 43.0154 29.1465 42.7508 29.8345C42.6113 30.1908 42.5309 30.556 42.5094 30.9299C42.4808 31.3498 42.361 31.7625 42.15 32.1683C42.0964 32.2671 42.0767 32.3711 42.091 32.4805L42.6167 36.2961C42.6381 36.4619 42.6113 36.6207 42.5362 36.7724C42.3539 37.1463 42.3681 37.5238 42.5791 37.9049C42.6352 38.0074 42.6702 38.1195 42.6822 38.2349C42.6941 38.3502 42.6828 38.4665 42.6489 38.577C42.5201 39.0145 42.5308 39.4466 42.681 39.8735C42.8384 40.3004 42.917 40.7661 42.917 41.2706C42.9206 42.202 42.8831 43.1193 42.8044 44.0225C42.8039 44.026 42.8038 44.0289 42.8039 44.0311C42.804 44.0332 42.805 44.0351 42.805 44.0351C42.805 44.0351 42.8066 44.0352 42.8078 44.034C42.8089 44.0328 42.8102 44.0307 42.8116 44.0279C42.813 44.0251 42.8145 44.0217 42.816 44.0178C42.8174 44.0139 42.8189 44.0096 42.8202 44.0052C42.8215 44.0007 42.8227 43.9963 42.8237 43.992C42.8247 43.9877 42.8254 43.9837 42.8259 43.9802C42.8402 43.832 42.8616 43.6821 42.8902 43.5304C42.926 43.3645 43.0011 43.2181 43.1155 43.0911C43.2478 42.9465 43.2836 42.7859 43.2228 42.6095C43.1656 42.4508 43.162 42.2902 43.212 42.128L43.7377 40.4451C43.9272 39.8383 44.1167 39.8383 44.3063 40.4451C44.4743 40.9708 44.4421 41.5335 44.2097 42.1333C44.1418 42.3061 44.1221 42.486 44.1507 42.673C44.2222 43.1493 44.249 43.6221 44.2312 44.0913C44.2133 44.6558 44.2776 45.1674 44.4243 45.626C44.7354 46.6033 45.1591 47.54 45.6955 48.4361C46.0495 49.0182 46.2855 49.6462 46.4035 50.3201C46.6538 51.7242 47.2778 52.9926 48.2754 54.1251C48.4185 54.2838 48.4632 54.4673 48.4095 54.6755C48.3523 54.9013 48.3756 55.1182 48.4793 55.3264C48.5579 55.4887 48.6849 55.6016 48.8601 55.6651L50.2976 56.1625C40.3675 56.2119 32.3093 56.1996 26.1231 56.1255C24.3209 56.1043 22.3971 55.8873 20.3517 55.4746C20.4483 54.4691 20.5877 53.3471 20.1211 52.4581C19.6991 51.6572 19.2217 50.8528 18.6889 50.0449C18.5995 49.9073 18.5531 49.7591 18.5495 49.6004C18.528 49.0288 18.3796 48.4714 18.1043 47.9281C17.8254 47.3883 17.7038 46.8256 17.7396 46.2399C17.8182 44.8887 18.2509 43.7367 19.0376 42.7842C19.0986 42.7088 19.1438 42.6218 19.1705 42.5282C19.1972 42.4347 19.2049 42.3364 19.1931 42.2391C19.1645 41.9921 19.2378 41.7822 19.413 41.6093C19.5561 41.4717 19.6365 41.3059 19.6544 41.1119C19.7402 40.1452 19.5757 39.145 19.1609 38.1113C19.0859 37.9243 19.0733 37.7338 19.1234 37.5397C19.2736 36.9364 19.3344 36.3225 19.3058 35.6981C19.295 35.4758 19.2468 35.2641 19.1609 35.063C19.1037 34.929 19.1466 34.839 19.2897 34.7931C19.342 34.7753 19.3899 34.7467 19.4301 34.7093C19.4703 34.6719 19.502 34.6266 19.5228 34.5764C19.5437 34.5262 19.5533 34.4723 19.551 34.4184C19.5487 34.3645 19.5346 34.3118 19.5096 34.2639C19.127 33.5477 18.9929 32.7645 19.1073 31.9142C19.1288 31.7484 19.1091 31.5879 19.0483 31.4327C19.009 31.3339 18.9571 31.2422 18.8928 31.1575C18.7676 30.9917 18.7158 30.8082 18.7372 30.6071C18.8624 29.5169 18.8785 28.4197 18.7855 27.3154C18.7712 27.1567 18.705 27.0208 18.587 26.908C18.3153 26.6504 18.3331 26.414 18.6407 26.1988C18.7312 26.1345 18.7962 26.0408 18.8245 25.9337C18.8529 25.8266 18.8429 25.7127 18.7962 25.6114C18.7175 25.4491 18.6049 25.375 18.4583 25.3891C18.4526 25.3891 18.4471 25.3914 18.4431 25.3953C18.4391 25.3993 18.4368 25.4047 18.4368 25.4103C18.4368 25.4159 18.4391 25.4213 18.4431 25.4253C18.4471 25.4292 18.4526 25.4315 18.4583 25.4315C18.7765 25.4667 18.9106 25.2939 18.8606 24.9128C18.832 24.6765 18.8785 24.4542 19 24.246C19.1681 23.9567 19.0805 23.8227 18.7372 23.8438C18.7086 23.8452 18.6801 23.8401 18.6538 23.829C18.6275 23.8178 18.6041 23.8008 18.5855 23.7794C18.5668 23.7579 18.5534 23.7326 18.5463 23.7052C18.5391 23.6779 18.5384 23.6493 18.5441 23.6216C18.6299 23.2017 18.5799 22.8066 18.3939 22.4361C18.3117 22.2703 18.2741 22.0939 18.2813 21.9069C18.3457 20.7039 18.1669 19.5537 17.7449 18.4565C17.3122 17.3311 17.078 16.7137 17.0423 16.6043C16.8384 15.9975 16.5971 15.3818 16.3182 14.7574C16.0553 14.1699 16.05 13.4238 15.9695 12.7887C15.9195 12.3583 15.7764 11.9384 15.5404 11.5292C15.1471 10.8518 14.7412 10.2062 14.3228 9.59229C14.1861 9.39019 13.9818 9.24187 13.7455 9.1732C13.5093 9.10453 13.2561 9.11987 13.0302 9.21655C12.6726 9.36826 12.4688 9.31534 12.4187 9.05779C16.1805 6.83512 20.2355 5.6691 24.5837 5.55973C28.5922 5.46094 32.5972 5.44154 36.5985 5.50152Z" fill="#2F80ED"/>
<path d="M12.4186 9.0578C12.4686 9.31535 12.6725 9.36827 13.03 9.21656C13.256 9.11988 13.5092 9.10454 13.7454 9.17321C13.9817 9.24188 14.186 9.3902 14.3227 9.5923C14.7411 10.2062 15.1469 10.8518 15.5403 11.5292C15.7763 11.9385 15.9193 12.3583 15.9694 12.7887C16.0498 13.4238 16.0552 14.1699 16.318 14.7574C16.5969 15.3818 16.8383 15.9975 17.0421 16.6043C17.0779 16.7137 17.3121 17.3311 17.7448 18.4565C18.1667 19.5537 18.3455 20.7039 18.2812 21.907C18.274 22.0939 18.3116 22.2703 18.3938 22.4362C18.5798 22.8066 18.6298 23.2017 18.544 23.6216C18.5382 23.6493 18.539 23.6779 18.5461 23.7052C18.5533 23.7326 18.5667 23.7579 18.5854 23.7794C18.604 23.8008 18.6273 23.8178 18.6536 23.829C18.6799 23.8401 18.7085 23.8452 18.7371 23.8439C19.0804 23.8227 19.168 23.9567 18.9999 24.246C18.8783 24.4542 18.8318 24.6765 18.8605 24.9128C18.9105 25.2939 18.7764 25.4668 18.4582 25.4315C18.4525 25.4315 18.447 25.4292 18.443 25.4253C18.439 25.4213 18.4367 25.4159 18.4367 25.4103C18.4367 25.4047 18.439 25.3993 18.443 25.3953C18.447 25.3914 18.4525 25.3891 18.4582 25.3891C18.6048 25.375 18.7174 25.4491 18.7961 25.6114C18.8427 25.7127 18.8528 25.8266 18.8244 25.9337C18.796 26.0408 18.7311 26.1345 18.6405 26.1988C18.333 26.414 18.3151 26.6504 18.5869 26.908C18.7049 27.0209 18.7711 27.1567 18.7854 27.3154C18.8783 28.4197 18.8622 29.5169 18.7371 30.6071C18.7156 30.8082 18.7675 30.9917 18.8926 31.1575C18.957 31.2422 19.0089 31.3339 19.0482 31.4327C19.109 31.5879 19.1286 31.7484 19.1072 31.9143C18.9928 32.7645 19.1269 33.5477 19.5095 34.2639C19.5345 34.3118 19.5486 34.3645 19.5509 34.4184C19.5532 34.4723 19.5435 34.5262 19.5227 34.5764C19.5018 34.6266 19.4702 34.6719 19.43 34.7093C19.3898 34.7467 19.3419 34.7753 19.2896 34.7931C19.1465 34.839 19.1036 34.929 19.1608 35.063C19.2466 35.2641 19.2949 35.4758 19.3056 35.6981C19.3343 36.3226 19.2735 36.9364 19.1233 37.5397C19.0732 37.7338 19.0857 37.9243 19.1608 38.1113C19.5756 39.145 19.7401 40.1452 19.6543 41.1119C19.6364 41.3059 19.556 41.4717 19.4129 41.6093C19.2377 41.7822 19.1644 41.9921 19.193 42.2391C19.2048 42.3364 19.1971 42.4347 19.1704 42.5282C19.1437 42.6218 19.0985 42.7088 19.0375 42.7842C18.2508 43.7368 17.8181 44.8887 17.7394 46.2399C17.7037 46.8256 17.8253 47.3883 18.1042 47.9281C18.3795 48.4714 18.5279 49.0288 18.5494 49.6004C18.5529 49.7591 18.5994 49.9073 18.6888 50.0449C19.2216 50.8528 19.699 51.6572 20.1209 52.4581C20.5876 53.3472 20.4481 54.4691 20.3516 55.4746C15.9032 54.5114 12.0449 52.6433 8.77659 49.8703C3.00876 44.9733 0.0837187 38.6528 0.00147438 30.9088C-0.0950733 22.288 4.55531 13.6249 12.4186 9.0578Z" fill="#2F70ED"/>
</svg>
